<svg xmlns="http://www.w3.org/2000/svg" version="1.1" xmlns:xlink="http://www.w3.org/1999/xlink" xmlns:svgjs="http://svgjs.com/svgjs" width="512" height="512" x="0" y="0" viewBox="0 0 64 64" style="enable-background:new 0 0 512 512" xml:space="preserve" class=""><g><path d="M40.7,44.14l-4.239.424,2,4.252a7.143,7.143,0,1,1-12.926,0L27.1,45.5l-4.657.466L21.908,47.1a11.154,11.154,0,1,0,20.184,0Z" fill="#71717a" data-original="#000000" class=""></path><path d="M32,57a5.142,5.142,0,0,0,4.653-7.332l-2.3-4.893-4.933.493-2.07,4.4A5.142,5.142,0,0,0,32,57Zm-1.351-6.128L32,48l1.351,2.872a1.493,1.493,0,1,1-2.7,0Z" fill="#71717a" data-original="#000000" class=""></path><path d="M24.188,37.781l16.02-1.6a1.99,1.99,0,1,0-.4-3.96l-16.02,1.6a1.99,1.99,0,0,0,.4,3.961Z" fill="#71717a" data-original="#000000" class=""></path><path d="M24.188,31.781l16.02-1.6a1.99,1.99,0,1,0-.4-3.96l-16.02,1.6a1.99,1.99,0,0,0,.4,3.961Z" fill="#71717a" data-original="#000000" class=""></path><path d="M22,23.8a1.99,1.99,0,0,0,2.188,1.98l16.02-1.6a1.99,1.99,0,1,0-.4-3.96l-16.02,1.6A1.991,1.991,0,0,0,22,23.8Z" fill="#71717a" data-original="#000000" class=""></path><path d="M42,40.2a1.99,1.99,0,0,0-2.188-1.98l-20.23,2.023A3.258,3.258,0,0,1,16,37a2,2,0,0,0-4,0,7.239,7.239,0,0,0,7.96,7.2L40.208,42.18A1.991,1.991,0,0,0,42,40.2Z" fill="#71717a" data-original="#000000" class=""></path><path d="M32,1A11.153,11.153,0,0,0,21.908,16.9L23.3,19.86l4.239-.424-2-4.252a7.143,7.143,0,1,1,12.926,0L36.9,18.5l4.657-.466.532-1.131A11.153,11.153,0,0,0,32,1Z" fill="#71717a" data-original="#000000" class=""></path><path d="M32,7a5.142,5.142,0,0,0-4.653,7.332l2.3,4.893,4.933-.493,2.07-4.4A5.142,5.142,0,0,0,32,7Zm1.351,6.128L32,16l-1.351-2.872a1.493,1.493,0,1,1,2.7,0Z" fill="#71717a" data-original="#000000" class=""></path><path d="M44.04,19.8l-.8.08a3.911,3.911,0,0,1,.4,3.96l.78-.078A3.258,3.258,0,0,1,48,27h0a2,2,0,0,0,4,0h0A7.239,7.239,0,0,0,44.04,19.8Z" fill="#71717a" data-original="#000000" class=""></path></g></svg>